<svg xmlns="http://www.w3.org/2000/svg" fill="none" viewBox="0 0 136 16"><g clip-path="url(#logo_svg__a1)"><path fill="#E34027" d="M5.02 0C2.116 0 0 2.371 0 5.283v5.434C0 13.629 2.116 16 5.02 16S10 13.629 10 10.717V5.283C10 2.371 7.924 0 5.02 0"></path><path fill="#182749" fill-rule="evenodd" d="M101.28 0a5.34 5.34 0 0 0-5.33 5.333V16.1h2.5V5.333a2.83 2.83 0 0 1 2.83-2.831 2.83 2.83 0 0 1 2.83 2.831V16.1h2.5V5.333a2.83 2.83 0 0 1 2.83-2.831 2.83 2.83 0 0 1 2.83 2.831V16.1h2.5V5.333A5.333 5.333 0 0 0 109.44 0c-1.575 0-3.061.7-4.08 1.913A5.3 5.3 0 0 0 101.28 0" clip-rule="evenodd"></path><path fill="#182749" d="M121.045.5h-2.47v15.51h2.47zM33.45.5h-2.5v15.51h2.5z"></path><path fill="#182749" fill-rule="evenodd" d="M61.28 0c-2.937 0-5.33 2.393-5.33 5.253V16.1h2.5v-5.524h2.83c2.927 0 5.31-2.293 5.33-5.223v-.03C66.61 2.393 64.218 0 61.28 0m-2.83 5.333a2.83 2.83 0 0 1 2.83-2.831 2.83 2.83 0 0 1 2.83 2.831c0 1.562-1.266 2.752-2.83 2.752h-2.83zM74.28 0c-2.937 0-5.33 2.444-5.33 5.253V16.1h2.5v-5.524h2.83c1.56 0 2.83 1.347 2.83 2.912V16.1h2.5v-2.612c0-1.145-.176-1.942-.51-2.58-.325-.623-.797-1.09-1.391-1.582C78.91 8.32 79.61 6.98 79.61 5.413v-.03C79.61 2.445 77.218 0 74.28 0m-2.83 5.383c0-1.564 1.269-2.892 2.83-2.892s2.83 1.328 2.83 2.892c0 1.56-1.264 2.692-2.83 2.692h-2.83zM42.78 0c-2.937 0-5.33 2.444-5.33 5.253V16.1h2.5v-5.524h2.83c1.56 0 2.83 1.347 2.83 2.912V16.1h2.5v-2.612c0-1.145-.176-1.942-.51-2.58-.325-.623-.797-1.09-1.392-1.582C47.41 8.32 48.11 6.98 48.11 5.413v-.03C48.11 2.445 45.718 0 42.78 0m-2.83 5.383c0-1.564 1.269-2.892 2.83-2.892s2.83 1.328 2.83 2.892c0 1.56-1.264 2.692-2.83 2.692h-2.83zM130.415 0c-3.04 0-5.565 2.473-5.565 5.503V16.1h2.462v-3.93a5.87 5.87 0 0 0 3.103.888 5.67 5.67 0 0 0 3.073-.887V16.1h2.462V5.504c.01-3.03-2.495-5.504-5.535-5.504m-3.093 5.503c0-1.672 1.418-3.042 3.103-3.042 1.684 0 3.073 1.37 3.073 3.042v2.282h-.01v.05c0 1.56-1.395 2.832-3.073 2.832s-3.093-1.273-3.093-2.832zM21.465 0c-3.012 0-5.515 2.473-5.515 5.503V16.1h2.44v-3.93a5.8 5.8 0 0 0 3.075.888 5.58 5.58 0 0 0 3.045-.887V16.1h2.44V5.504C26.96 2.474 24.477 0 21.465 0M18.4 5.503c0-1.672 1.405-3.042 3.075-3.042a3.056 3.056 0 0 1 3.045 3.042v2.282h-.01v.05c0 1.56-1.382 2.832-3.045 2.832S18.4 9.394 18.4 7.835zM87.73 0c-2.938 0-5.33 2.38-5.33 5.301v5.162c0 2.768 2.027 5.239 4.795 5.51 3.18.312 5.865-2.178 5.865-5.27v-.32h-2.5v.11c0 1.237-.73 2.497-1.905 2.877-1.957.626-3.755-.82-3.755-2.668V9.051h5.18V6.565h-5.17V5.3c0-1.974 2.033-3.47 4.13-2.52.96.438 1.53 1.414 1.53 2.47v.08h2.5v-.08C93.06 2.33 90.667 0 87.73 0" clip-rule="evenodd"></path></g><defs><clipPath id="logo_svg__a1"><path fill="#fff" d="M0 0h136v16H0z"></path></clipPath></defs></svg>